<svg version="1.1" id="Layer_1" xmlns="http://www.w3.org/2000/svg" xmlns:xlink="http://www.w3.org/1999/xlink" x="0px" y="0px"
	 width="100%" viewBox="0 0 800 800" enable-background="new 0 0 800 800" xml:space="preserve">
<path fill="#A8008C" opacity="1.000000" stroke="none" 
	d="
M1.000000,425.000000 
	C1.000000,409.312439 1.000000,393.624878 1.370557,377.266357 
	C4.598611,356.175598 6.052868,335.442566 10.530154,315.384369 
	C56.495468,109.460213 258.778656,-29.752403 477.550323,14.554022 
	C639.191101,47.290092 761.530945,175.591095 788.275391,337.752869 
	C796.647583,388.516693 795.147095,439.065155 783.601440,489.095032 
	C736.383972,693.699585 534.896301,831.538269 317.006165,787.397522 
	C214.770035,766.686279 133.313843,712.230225 72.737480,627.336792 
	C32.120983,570.415710 9.121102,506.683319 2.744138,436.995789 
	C2.376443,432.977631 1.591017,428.997711 1.000000,425.000000 
M266.595276,504.840759 
	C268.437866,507.809082 270.167969,510.854492 272.141052,513.733398 
	C286.551300,534.758972 309.465820,543.459656 334.164093,536.924255 
	C359.171814,530.306885 378.441650,515.068604 394.232422,495.211243 
	C401.833710,485.652466 408.550171,475.390045 415.737518,465.348145 
	C416.509888,472.225250 417.101318,479.107697 418.080444,485.934509 
	C422.743500,518.446594 446.532532,536.601624 472.303345,538.613770 
	C497.635590,540.591736 519.460693,531.719543 536.843445,513.013184 
	C548.376892,500.601532 554.499756,485.850891 554.189331,467.039642 
	C551.710388,468.209930 549.533142,468.610931 548.338501,469.913300 
	C543.823242,474.835327 538.742004,478.526917 532.053406,479.919739 
	C519.190796,482.598297 510.410461,476.980957 510.258270,463.809814 
	C510.115417,451.443939 510.675659,438.620209 513.799072,426.754059 
	C521.844788,396.187653 531.576843,366.067871 540.437744,335.712067 
	C544.412781,322.094452 547.376221,308.247253 546.656799,293.912292 
	C545.317505,267.222748 532.850342,254.140808 512.682983,246.350494 
	C485.225494,235.744125 456.475708,250.449722 442.924011,269.667358 
	C439.701935,274.236603 439.201813,278.460022 440.432373,283.654907 
	C443.949646,298.503021 445.075958,313.544739 443.403595,328.778870 
	C440.914368,351.454163 434.374664,373.093903 426.616455,394.391907 
	C420.133087,412.190094 411.455475,428.906982 398.889893,443.203644 
	C394.238068,448.496338 388.694885,453.363434 382.709290,457.044006 
	C373.174988,462.906647 364.971771,459.589600 360.614716,449.323669 
	C356.986786,440.775665 356.245209,431.744110 357.714355,422.827545 
	C360.956543,403.150757 364.964355,383.601440 368.494446,363.970398 
	C372.198639,343.371246 376.949310,322.858154 378.973236,302.086334 
	C381.210938,279.120789 371.011475,261.351685 350.219086,250.523407 
	C336.168488,243.206161 321.170166,241.577026 305.553619,243.997681 
	C272.470490,249.125763 241.366684,275.315277 240.297424,313.926788 
	C240.199402,317.466309 241.018463,319.285614 244.642441,319.209869 
	C246.615189,316.614960 248.393051,313.993317 250.456406,311.619843 
	C255.079041,306.302368 264.686737,303.319092 270.429626,305.565948 
	C277.903442,308.490021 280.318695,314.842224 279.960785,322.094177 
	C279.544342,330.532562 278.900543,339.054688 277.251770,347.320312 
	C271.234650,377.485046 264.037140,407.430847 258.690979,437.707520 
	C254.702103,460.297363 256.196533,482.882080 266.595276,504.840759 
z"/>
<path fill="#FFFEFF" opacity="1.000000" stroke="none" 
	d="
M1.000000,425.468658 
	C1.591017,428.997711 2.376443,432.977631 2.744138,436.995789 
	C9.121102,506.683319 32.120983,570.415710 72.737480,627.336792 
	C133.313843,712.230225 214.770035,766.686279 317.006165,787.397522 
	C534.896301,831.538269 736.383972,693.699585 783.601440,489.095032 
	C795.147095,439.065155 796.647583,388.516693 788.275391,337.752869 
	C761.530945,175.591095 639.191101,47.290092 477.550323,14.554022 
	C258.778656,-29.752403 56.495468,109.460213 10.530154,315.384369 
	C6.052868,335.442566 4.598611,356.175598 1.370557,376.797668 
	C1.000000,251.684036 1.000000,126.368088 1.000000,1.026064 
	C267.612335,1.026064 534.224670,1.026064 800.918457,1.026064 
	C800.918457,267.575348 800.918457,534.150696 800.918457,800.863037 
	C534.333374,800.863037 267.666687,800.863037 1.000000,800.863037 
	C1.000000,675.902405 1.000000,550.919861 1.000000,425.468658 
z"/>
<path fill="#FFFEFF" opacity="1.000000" stroke="none" 
	d="
M266.417236,504.511780 
	C256.196533,482.882080 254.702103,460.297363 258.690979,437.707520 
	C264.037140,407.430847 271.234650,377.485046 277.251770,347.320312 
	C278.900543,339.054688 279.544342,330.532562 279.960785,322.094177 
	C280.318695,314.842224 277.903442,308.490021 270.429626,305.565948 
	C264.686737,303.319092 255.079041,306.302368 250.456406,311.619843 
	C248.393051,313.993317 246.615189,316.614960 244.642441,319.209869 
	C241.018463,319.285614 240.199402,317.466309 240.297424,313.926788 
	C241.366684,275.315277 272.470490,249.125763 305.553619,243.997681 
	C321.170166,241.577026 336.168488,243.206161 350.219086,250.523407 
	C371.011475,261.351685 381.210938,279.120789 378.973236,302.086334 
	C376.949310,322.858154 372.198639,343.371246 368.494446,363.970398 
	C364.964355,383.601440 360.956543,403.150757 357.714355,422.827545 
	C356.245209,431.744110 356.986786,440.775665 360.614716,449.323669 
	C364.971771,459.589600 373.174988,462.906647 382.709290,457.044006 
	C388.694885,453.363434 394.238068,448.496338 398.889893,443.203644 
	C411.455475,428.906982 420.133087,412.190094 426.616455,394.391907 
	C434.374664,373.093903 440.914368,351.454163 443.403595,328.778870 
	C445.075958,313.544739 443.949646,298.503021 440.432373,283.654907 
	C439.201813,278.460022 439.701935,274.236603 442.924011,269.667358 
	C456.475708,250.449722 485.225494,235.744125 512.682983,246.350494 
	C532.850342,254.140808 545.317505,267.222748 546.656799,293.912292 
	C547.376221,308.247253 544.412781,322.094452 540.437744,335.712067 
	C531.576843,366.067871 521.844788,396.187653 513.799072,426.754059 
	C510.675659,438.620209 510.115417,451.443939 510.258270,463.809814 
	C510.410461,476.980957 519.190796,482.598297 532.053406,479.919739 
	C538.742004,478.526917 543.823242,474.835327 548.338501,469.913300 
	C549.533142,468.610931 551.710388,468.209930 554.189331,467.039642 
	C554.499756,485.850891 548.376892,500.601532 536.843445,513.013184 
	C519.460693,531.719543 497.635590,540.591736 472.303345,538.613770 
	C446.532532,536.601624 422.743500,518.446594 418.080444,485.934509 
	C417.101318,479.107697 416.509888,472.225250 415.737518,465.348145 
	C408.550171,475.390045 401.833710,485.652466 394.232422,495.211243 
	C378.441650,515.068604 359.171814,530.306885 334.164093,536.924255 
	C309.465820,543.459656 286.551300,534.758972 272.141052,513.733398 
	C270.167969,510.854492 268.437866,507.809082 266.417236,504.511780 
z"/>
</svg>